<?xml version="1.0" encoding="UTF-8"?>
<svg xmlns="http://www.w3.org/2000/svg" width="456" height="332" viewBox="0 0 228 166" fill="#ffffff"><defs><path id="g-101" d="M-39 327Q-87 342 -81 387Q-79 410 -70.0 431.5Q-61 453 -47 474Q19 572 116 643Q200 701 242 685Q282 669 264 622Q240 577 191 549Q142 519 93 500Q82 496 71.5 491.0Q61 486 51 482Q45 478 38.5 473.0Q32 468 26 461Q19 454 13.5 446.0Q8 438 3 430Q-6 417 -8 403Q-9 393 4 393Q79 403 225 471Q297 505 355.5 537.5Q414 570 458 601Q479 611 494 602Q509 595 509 575Q508 556 479 535Q453 517 414.0 495.0Q375 473 324 446Q274 420 223.0 397.5Q172 375 120 355Q19 318 -39 327Z" /><path id="g-116" d="M-155 98Q-144 164 -113.0 249.0Q-82 334 -33 440Q17 545 59.0 627.5Q101 710 135 769Q136 771 136.5 773.0Q137 775 138 777Q139 778 141 782Q132 781 117.5 778.5Q103 776 83 772Q63 768 43.0 763.0Q23 758 3 753Q-16 748 -30.5 744.0Q-45 740 -53 736Q-76 727 -90 737Q-104 746 -106 763Q-108 780 -89 794Q-72 803 -17 817Q11 824 39.0 830.0Q67 836 95 842Q123 847 142.0 851.0Q161 855 171 856Q188 858 195 872Q211 898 228.0 925.0Q245 952 264 981Q284 1010 304.0 1036.0Q324 1062 344 1084Q358 1098 375 1092Q392 1086 402 1072Q412 1056 403 1042Q331 967 276 875Q275 874 274.0 872.0Q273 870 272 868Q273 869 275 869Q286 870 302.5 871.5Q319 873 341 876Q364 878 394.5 880.0Q425 882 463 882Q501 883 524.5 881.5Q548 880 555 878Q576 869 577 853Q580 837 567 824Q555 811 533 814Q498 817 462.5 817.5Q427 818 392 816Q357 814 333.0 812.5Q309 811 295 809Q282 807 268.5 804.5Q255 802 242 799Q227 798 221 784Q214 774 210 764Q122 605 51 455Q15 381 -16.0 299.5Q-47 218 -74 129Q-75 125 -75.0 120.5Q-75 116 -75 111Q-73 96 -76 84Q-77 72 -92 62Q-115 50 -136 62Q-157 74 -155 98Z" /><path id="g-77" d="M2 185Q-13 170 -34 170Q-54 171 -68 184Q-81 197 -70 218Q31 386 128.5 534.0Q226 682 320 810Q327 819 336.0 831.0Q345 843 356 858Q379 887 396 904Q413 919 438 918Q461 917 477 899Q490 883 478 854Q477 853 477.0 852.5Q477 852 476 851Q435 775 398.0 698.0Q361 621 327 544Q323 534 318.0 520.0Q313 506 305 486Q298 467 291.5 449.5Q285 432 280 416Q279 415 279.0 413.5Q279 412 278 410Q277 408 276.5 405.5Q276 403 275 401Q274 398 274 395Q274 393 278 395Q280 397 282.5 399.5Q285 402 289 406Q318 439 350.5 477.0Q383 515 419 556Q496 646 573.5 734.0Q651 822 730 909Q810 995 871.5 1054.5Q933 1114 977 1145Q1004 1162 1032 1153Q1061 1146 1077 1124Q1093 1102 1081 1077Q929 849 811 607Q753 487 710.5 367.0Q668 247 641 127Q640 120 639.5 114.0Q639 108 639 103Q639 94 646 89Q660 81 654 66Q650 52 632 39Q616 29 595 30Q550 39 559 113Q659 577 954 1022Q971 1047 971 1050Q970 1054 941 1028Q829 916 725.0 802.0Q621 688 523 573Q474 517 425.0 461.5Q376 406 327 352Q321 345 312.5 336.0Q304 327 294 316Q284 306 275.5 299.5Q267 293 259 291Q245 287 232.0 288.5Q219 290 208 294Q187 304 179 324Q175 337 189 384Q197 407 204.5 428.5Q212 450 221 472L287 638Q275 635 221 551Q194 509 165.0 461.5Q136 414 104 361Q73 308 47.5 264.0Q22 220 2 185Z" /><path id="g-117" d="M293 678Q311 695 334 684Q357 674 370 654Q383 635 375 619Q373 615 369.5 610.5Q366 606 361 600Q345 581 329.0 556.5Q313 532 299 503Q269 445 272 407Q275 387 255 379Q234 371 212 380Q190 389 190 414Q196 457 212 490Q220 507 227.0 520.0Q234 533 241 543Q243 546 244.0 548.0Q245 550 246 551Q239 543 228.0 529.5Q217 516 201 499Q185 481 166.0 461.0Q147 441 125 419Q103 397 84.0 380.0Q65 363 51 352Q26 335 0 342Q-28 349 -43 372Q-59 394 -48 423Q-37 448 -20.5 475.5Q-4 503 16 534Q56 594 80 617Q100 632 118 623Q136 612 141 594Q147 574 131 561Q110 550 44 449Q24 415 42 428Q60 439 98 476Q117 495 137.5 515.5Q158 536 180 559Q202 582 222.0 602.5Q242 623 259 642Q270 653 278.0 662.0Q286 671 293 678Z" /><path id="g-102" d="M395 577Q411 590 426 582Q441 573 444 557Q447 540 429 525Q349 467 242 449Q136 431 80 464Q79 459 77.5 453.5Q76 448 75 443Q67 403 54.5 357.5Q42 312 25 260Q-10 156 -69 107Q-95 90 -115 96Q-137 102 -144 127Q-153 178 -125 258Q-111 299 -94.0 339.5Q-77 380 -57 420Q-37 460 -20.5 491.5Q-4 523 9 545Q16 558 17 568Q19 572 20.0 576.0Q21 580 23 583Q25 589 34 596Q42 604 58.0 625.5Q74 647 96 684Q115 716 136.5 747.5Q158 779 180 811Q226 874 267 905Q285 916 298 912Q310 909 319 897Q325 885 322 874Q315 851 298 819Q282 789 262 767Q244 746 227 754Q211 735 199.5 720.5Q188 706 180 695Q172 684 164.5 674.0Q157 664 151 653Q144 643 136.5 630.5Q129 618 118 601Q114 594 110.0 587.0Q106 580 101 572Q95 561 102 546Q112 532 131 522Q182 502 267 522Q351 542 395 577ZM-75 189Q-63 203 -47 242Q-38 262 -30.0 284.0Q-22 306 -15 328Q-8 351 -4.0 368.0Q0 385 1 397Q-7 384 -15.0 367.5Q-23 351 -31 333Q-39 314 -46.0 296.0Q-53 278 -59 260Q-73 225 -77 205Q-81 185 -75 189Z" /></defs><g transform="scale(0.072,-0.072)"><use href="#g-77" x="236" y="-1333" /><use href="#g-117" x="1156" y="-1333" /><use href="#g-102" x="1566" y="-1333" /><use href="#g-116" x="1907" y="-1333" /><use href="#g-101" x="2115" y="-1333" /><use href="#g-101" x="2484" y="-1333" /></g></svg>